{
  "accessors": [
    {
      "bufferView": 2,
      "componentType": 5126,
      "count": 11130,
      "max": [
        0.9789642095565796,
        0.9803116321563721,
        0.9779556393623352
      ],
      "min": [
        -0.9789641499519348,
        -0.9803115725517273,
        -0.9779557585716248
      ],
      "type": "VEC3"
    },
    {
      "bufferView": 2,
      "byteOffset": 133560,
      "componentType": 5126,
      "count": 11130,
      "max": [
        0.9978219866752625,
        0.999992311000824,
        0.999660313129425
      ],
      "min": [
        -0.9978219270706177,
        -0.999992311000824,
        -0.9996602535247803
      ],
      "type": "VEC3"
    },
    {
      "bufferView": 1,
      "componentType": 5126,
      "count": 11130,
      "max": [
        0.9960429668426514,
        0.9375003576278687
      ],
      "min": [
        0.003980027511715889,
        0.5
      ],
      "type": "VEC2"
    },
    {
      "bufferView": 0,
      "componentType": 5125,
      "count": 52224,
      "type": "SCALAR"
    },
    {
      "bufferView": 2,
      "byteOffset": 267120,
      "componentType": 5126,
      "count": 8116,
      "max": [
        0.9645843505859375,
        0.9736024737358093,
        0.9624501466751099
      ],
      "min": [
        -0.9645841717720032,
        -0.9736024141311646,
        -0.9624500870704651
      ],
      "type": "VEC3"
    },
    {
      "bufferView": 2,
      "byteOffset": 364512,
      "componentType": 5126,
      "count": 8116,
      "max": [
        0.9999998211860657,
        0.9999743700027466,
        0.9963719844818115
      ],
      "min": [
        -0.9999998807907104,
        -0.9999743700027466,
        -0.9974766969680786
      ],
      "type": "VEC3"
    },
    {
      "bufferView": 1,
      "byteOffset": 89040,
      "componentType": 5126,
      "count": 8116,
      "max": [
        1.0000001192092896,
        0.9375003576278687
      ],
      "min": [
        0.0,
        0.5000080466270447
      ],
      "type": "VEC2"
    },
    {
      "bufferView": 0,
      "byteOffset": 208896,
      "componentType": 5125,
      "count": 33024,
      "type": "SCALAR"
    }
  ],
  "asset": {
    "extras": {
      "author": "vvesy (https://sketchfab.com/vvesy)",
      "license": "CC-BY-4.0 (http://creativecommons.org/licenses/by/4.0/)",
      "source": "https://sketchfab.com/3d-models/basket-ball-5f9da304f5a44196804068647abae104",
      "title": "Basket Ball"
    },
    "generator": "Sketchfab-15.4.0",
    "version": "2.0"
  },
  "bufferViews": [
    {
      "buffer": 0,
      "byteLength": 340992,
      "name": "floatBufferViews",
      "target": 34963
    },
    {
      "buffer": 0,
      "byteLength": 153968,
      "byteOffset": 340992,
      "byteStride": 8,
      "name": "floatBufferViews",
      "target": 34962
    },
    {
      "buffer": 0,
      "byteLength": 461904,
      "byteOffset": 494960,
      "byteStride": 12,
      "name": "floatBufferViews",
      "target": 34962
    }
  ],
  "buffers": [
    {
      "byteLength": 956864,
      "uri": "scene.bin"
    }
  ],
  "materials": [
    {
      "doubleSided": true,
      "name": "Material.002",
      "pbrMetallicRoughness": {
        "baseColorFactor": [
          0.8,
          0.0864447,
          0.0,
          1.0
        ],
        "metallicFactor": 0.0,
        "roughnessFactor": 0.5
      }
    },
    {
      "doubleSided": true,
      "name": "Material.001",
      "pbrMetallicRoughness": {
        "baseColorFactor": [
          0.0,
          0.0,
          0.0,
          1.0
        ],
        "metallicFactor": 0.0,
        "roughnessFactor": 0.5
      }
    }
  ],
  "meshes": [
    {
      "name": "Object_0",
      "primitives": [
        {
          "attributes": {
            "NORMAL": 1,
            "POSITION": 0,
            "TEXCOORD_0": 2
          },
          "indices": 3,
          "material": 0,
          "mode": 4
        }
      ]
    },
    {
      "name": "Object_1",
      "primitives": [
        {
          "attributes": {
            "NORMAL": 5,
            "POSITION": 4,
            "TEXCOORD_0": 6
          },
          "indices": 7,
          "material": 1,
          "mode": 4
        }
      ]
    }
  ],
  "nodes": [
    {
      "children": [
        1
      ],
      "matrix": [
        1.0,
        0.0,
        0.0,
        0.0,
        0.0,
        2.220446049250313e-16,
        -1.0,
        0.0,
        0.0,
        1.0,
        2.220446049250313e-16,
        0.0,
        0.0,
        0.0,
        0.0,
        1.0
      ],
      "name": "Sketchfab_model"
    },
    {
      "children": [
        2
      ],
      "name": "root"
    },
    {
      "children": [
        3
      ],
      "matrix": [
        1.0,
        0.0,
        0.0,
        0.0,
        0.0,
        2.220446049250313e-16,
        1.0,
        0.0,
        0.0,
        -1.0,
        2.220446049250313e-16,
        0.0,
        0.0,
        0.0,
        0.0,
        1.0
      ],
      "name": "GLTF_SceneRootNode"
    },
    {
      "children": [
        4,
        5
      ],
      "matrix": [
        1.0,
        0.0,
        0.0,
        0.0,
        0.0,
        1.0,
        0.0,
        0.0,
        0.0,
        0.0,
        1.0,
        0.0,
        0.0,
        0.9772453904151917,
        0.0,
        1.0
      ],
      "name": "Sphere_0"
    },
    {
      "mesh": 0,
      "name": "Object_4"
    },
    {
      "mesh": 1,
      "name": "Object_5"
    }
  ],
  "scene": 0,
  "scenes": [
    {
      "name": "Sketchfab_Scene",
      "nodes": [
        0
      ]
    }
  ]
}
